<svg aria-hidden="true" style="position: absolute; width: 0; height: 0; overflow: hidden;" version="1.1" xmlns="http://www.w3.org/2000/svg" xmlns:xlink="http://www.w3.org/1999/xlink">
<defs>
<symbol id="twitter" viewBox="0 0 38 32">
<title>twitter</title>
<path d="M17.513 0.601c2.034-0.036 3.117 0.705 4.151 1.647 0.878-0.075 2.019-0.565 2.691-0.907 0.217-0.118 0.435-0.238 0.653-0.357-0.384 1.037-0.904 1.849-1.704 2.466-0.178 0.136-0.354 0.321-0.577 0.408 0 0.004 0 0.009 0 0.013 1.14-0.011 2.080-0.526 2.973-0.805 0 0.004 0 0.009 0 0.013-0.469 0.745-1.104 1.502-1.781 2.044-0.273 0.217-0.547 0.434-0.82 0.651 0.015 1.207-0.018 2.359-0.243 3.373-1.312 5.895-4.788 9.897-10.289 11.612-1.976 0.615-5.168 0.868-7.432 0.306-1.122-0.278-2.136-0.593-3.087-1.009-0.529-0.231-1.019-0.481-1.487-0.767-0.154-0.093-0.307-0.187-0.461-0.28 0.51 0.015 1.108 0.156 1.678 0.063 0.517-0.083 1.023-0.061 1.5-0.165 1.188-0.261 2.243-0.606 3.151-1.138 0.441-0.258 1.11-0.56 1.423-0.932-0.59 0.010-1.125-0.127-1.563-0.281-1.699-0.6-2.688-1.703-3.332-3.36 0.515 0.057 1.998 0.191 2.345-0.102-0.648-0.036-1.271-0.411-1.717-0.69-1.367-0.855-2.481-2.289-2.473-4.496 0.18 0.085 0.359 0.17 0.538 0.255 0.344 0.145 0.693 0.222 1.102 0.307 0.173 0.036 0.519 0.137 0.718 0.063-0.009 0-0.017 0-0.026 0-0.264-0.307-0.695-0.512-0.961-0.843-0.877-1.089-1.698-2.766-1.179-4.764 0.132-0.507 0.341-0.954 0.564-1.367 0.009 0.004 0.017 0.008 0.026 0.012 0.102 0.214 0.33 0.371 0.474 0.55 0.448 0.555 1 1.054 1.563 1.494 1.918 1.5 3.645 2.422 6.419 3.104 0.704 0.174 1.517 0.306 2.358 0.307-0.236-0.687-0.16-1.8 0.025-2.465 0.468-1.674 1.483-2.879 2.973-3.526 0.356-0.154 0.751-0.267 1.166-0.358 0.214-0.025 0.427-0.051 0.641-0.076z"></path>
</symbol>
<symbol id="facebook" viewBox="0 0 16 32">
<title>facebook</title>
<path d="M12.089 0.199c0 1.476 0 4.121 0 4.121s-3.037-0.303-3.798 0.861c-0.416 0.636-0.169 2.5-0.206 3.838 1.326 0 2.703 0 4.029 0-0.34 1.564-0.584 2.624-0.835 3.978-1.147 0-3.216 0-3.216 0v12.804c0 0-3.797 0-5.582 0 0.001-3.947-0.001-8.552 0-12.754-0.867 0-1.508 0-2.375 0 0-1.476 0-2.551 0-4.028 0.841 0 1.507 0 2.349 0 0.12-2.946 0.165-5.864 1.629-7.35 1.644-1.671 3.213-1.47 8.005-1.47z"></path>
</symbol>
<symbol id="instagram" viewBox="0 0 32 32">
<title>instagram</title>
<path d="M22.7 25.8h-19.2c-1.767 0-3.2-1.433-3.2-3.201v-19.199c0-1.768 1.433-3.201 3.2-3.201h19.2c1.767 0 3.2 1.433 3.2 3.201v19.199c0 1.768-1.433 3.201-3.2 3.201zM13.1 8.039c-1.996 0-3.711 1.182-4.498 2.88h-0.005c-0.008 0.018-0.014 0.037-0.022 0.055-0.047 0.105-0.088 0.213-0.128 0.321-0.019 0.053-0.040 0.104-0.057 0.156-0.037 0.112-0.067 0.225-0.095 0.34-0.014 0.053-0.030 0.106-0.042 0.16-0.026 0.121-0.044 0.244-0.061 0.368-0.007 0.050-0.017 0.099-0.023 0.15-0.018 0.174-0.029 0.351-0.029 0.531 0 2.739 2.221 4.959 4.96 4.959s4.96-2.22 4.96-4.959c0-0.18-0.011-0.357-0.029-0.531-0.006-0.051-0.016-0.1-0.023-0.15-0.017-0.124-0.035-0.247-0.061-0.368-0.012-0.054-0.028-0.107-0.042-0.16-0.028-0.115-0.058-0.228-0.095-0.34-0.017-0.052-0.038-0.103-0.057-0.156-0.040-0.108-0.081-0.216-0.128-0.321-0.008-0.018-0.014-0.037-0.022-0.055h-0.005c-0.787-1.698-2.502-2.88-4.498-2.88zM23.020 4.359c0-0.707-0.573-1.279-1.28-1.279h-2.56c-0.707 0-1.28 0.572-1.28 1.279v2.561c0 0.707 0.573 1.28 1.28 1.28h2.56c0.707 0 1.28-0.573 1.28-1.28v-2.561zM23.020 10.919h-2.36c0.182 0.663 0.28 1.361 0.28 2.081 0 4.33-3.51 7.839-7.84 7.839s-7.84-3.509-7.84-7.839c0-0.72 0.098-1.418 0.28-2.081h-2.36v10.72c0 0.708 0.573 1.281 1.28 1.281h17.28c0.707 0 1.28-0.573 1.28-1.281v-10.72z"></path>
</symbol>
<symbol id="pinterest" viewBox="0 0 26 32">
<title>pinterest</title>
<path d="M9.051 16.854c-0.209 0.833-0.42 1.706-0.638 2.56-0.215 0.842-0.405 1.696-0.718 2.47-0.519 1.281-1.178 2.519-2.043 3.521-0.575 0.667-0.453 0.401-0.626 0.365-0.132-0.028-0.143-0.157-0.169-0.345-0.141-1.018-0.045-2.195 0.007-3.339 0.060-1.304 0.334-2.388 0.589-3.471 0.484-2.064 0.946-4.087 1.435-6.164 0.032-0.138 0.12-0.366 0.090-0.445-0.222-0.577-0.366-1.095-0.429-1.701-0.073-0.695-0.017-1.344 0.139-1.943 0.277-1.058 0.913-1.995 1.894-2.338 0.624-0.216 1.315-0.118 1.735 0.132 0.432 0.259 0.729 0.667 0.867 1.246 0.148 0.615 0.039 1.351-0.080 1.891-0.267 1.219-0.618 2.134-0.937 3.31-0.158 0.583-0.337 1.182-0.189 1.812 0.136 0.578 0.437 0.976 0.847 1.275 0.426 0.31 0.93 0.479 1.625 0.455 1.228-0.043 2.081-0.828 2.651-1.568 0.913-1.185 1.465-2.784 1.675-4.686 0.067-0.614 0.117-1.319 0.070-2.014-0.088-1.284-0.489-2.317-1.127-3.117-0.606-0.763-1.466-1.369-2.512-1.711-1.037-0.338-2.472-0.451-3.747-0.233-2.318 0.397-3.952 1.714-4.915 3.533-0.504 0.952-0.837 2.047-0.837 3.41 0 1.051 0.259 1.865 0.678 2.5 0.133 0.201 0.328 0.367 0.458 0.597 0.185 0.326-0.028 0.811-0.119 1.164-0.11 0.425-0.122 1.012-0.618 1.022-0.206 0.004-0.464-0.146-0.638-0.243-1.305-0.721-2.097-2.033-2.422-3.734-0.198-1.034-0.197-2.239 0-3.238 0.19-0.967 0.544-1.858 0.937-2.581 0.814-1.503 2.007-2.705 3.459-3.563 1.116-0.66 2.375-1.123 3.907-1.346 0.508-0.074 1.034-0.105 1.605-0.132 1.668-0.078 3.184 0.3 4.326 0.81 1.205 0.539 2.167 1.256 2.98 2.146 0.838 0.915 1.448 1.979 1.834 3.309 0.202 0.692 0.398 1.432 0.398 2.287 0 0.858-0.181 1.613-0.308 2.368-0.474 2.828-1.819 5.141-3.838 6.458-0.489 0.318-1.081 0.613-1.754 0.809-0.667 0.194-1.428 0.34-2.243 0.283-0.791-0.054-1.439-0.269-1.983-0.577-0.54-0.305-0.994-0.679-1.316-1.244z"></path>
</symbol>
</defs>
</svg>
