<svg aria-hidden="true" style="position: absolute; width: 0; height: 0; overflow: hidden;" version="1.1" xmlns="http://www.w3.org/2000/svg" xmlns:xlink="http://www.w3.org/1999/xlink">
<defs>
<symbol id="cart" viewBox="0 0 38 32">
<title>cart</title>
<path d="M17.726 3.663h0.001l-2.475 5.5c-0.122 0.271-0.386 0.464-0.697 0.485v0l-7.128 0.475 0.412 1.176h7.761c0.911 0 1.65 0.739 1.65 1.651s-0.739 1.65-1.65 1.65-1.65-0.739-1.65-1.65h-7.7c0 0.911-0.739 1.65-1.65 1.65s-1.65-0.739-1.65-1.65c0-0.912 0.739-1.651 1.65-1.651h1.491l-3.176-9.074h-1.89c-0.456 0-0.825-0.37-0.825-0.825 0-0.456 0.369-0.825 0.825-0.825h2.475c0.36 0 0.663 0.232 0.776 0.553l0.003-0.001 0.48 1.373h12.216c0.456 0 0.825 0.369 0.825 0.825 0 0.12-0.027 0.234-0.074 0.338zM5.337 4.15l1.525 4.357 7.089-0.473 1.748-3.884h-10.362z"></path>
</symbol>
<symbol id="glass" viewBox="0 0 32 32">
<title>glass</title>
<path d="M17.317 14.983c0.298 0.298 0.483 0.711 0.483 1.167 0 0.911-0.739 1.65-1.65 1.65-0.456 0-0.868-0.185-1.167-0.484v0l-4.836-4.835c-0.982 0.58-2.124 0.919-3.347 0.919-3.645 0-6.6-2.955-6.6-6.6s2.955-6.6 6.6-6.6c3.645 0 6.6 2.955 6.6 6.6 0 1.223-0.339 2.365-0.919 3.347l4.836 4.836zM6.8 1.849c-2.734 0-4.95 2.217-4.95 4.951s2.216 4.95 4.95 4.95c2.734 0 4.95-2.216 4.95-4.95s-2.216-4.951-4.95-4.951z"></path>
</symbol>
</defs>
</svg>
